<?xml version="1.0" encoding="UTF-8" standalone="no"?>
<svg
   id="svg8"
   version="1.1"
   viewBox="0 0 450.52395 63.977134"
   height="63.977139mm"
   width="346.52396mm"
   xmlns="http://www.w3.org/2000/svg"
   xmlns:svg="http://www.w3.org/2000/svg"
   xmlns:rdf="http://www.w3.org/1999/02/22-rdf-syntax-ns#"
   xmlns:cc="http://creativecommons.org/ns#"
   xmlns:dc="http://purl.org/dc/elements/1.1/">
  <defs
     id="defs2" />
  <metadata
     id="metadata5">
    <rdf:RDF>
      <cc:Work
         rdf:about="">
        <dc:format>image/svg+xml</dc:format>
        <dc:type
           rdf:resource="http://purl.org/dc/dcmitype/StillImage" />
      </cc:Work>
    </rdf:RDF>
  </metadata>
  <g
     id="g2149">
    <g
       id="g2141">
      <g
         id="g2106"
         transform="matrix(0.96564264,0,0,0.96251987,-899.3295,194.86874)">
        <circle
           style="fill:#009688;fill-opacity:0.980392;stroke:none;stroke-width:0.141404;stop-color:#000000"
           id="path875-5-9-7-3-2-3-9-9-8-0-0-5-87-7"
           cx="964.56165"
           cy="-169.22266"
           r="33.234192" />
        <path
           id="rect1249-6-3-4-4-3-6-6-1-2"
           style="fill:#ffffff;fill-opacity:0.980392;stroke:none;stroke-width:0.146895;stop-color:#000000"
           d="m 984 -183 z C 949 -186 941 -170 951 -161 C 953 -166 955 -169 970 -176 C 960 -169 955 -165 952.532 -160.12 C 971 -160 977 -160 984 -183 M 947 -152 C 951 -158 951 -165 960 -170 C 954 -165 950 -159 949 -150 C 948 -149 946 -149 947 -152" />
      </g>
      <path
         style="font-size:79.7151px;line-height:1.25;font-family:Ubuntu;-inkscape-font-specification:Ubuntu;letter-spacing:0px;word-spacing:0px;fill:#009688;stroke-width:1.99288"
         d="M 129.28 56.64 L 95.2 56.64 L 95.2 1.2 L 127.2 1.2 L 127.2 5.92 L 100.64 5.92 L 100.64 25.2 L 124.32 25.2 L 124.32 29.84 L 100.64 29.84 L 100.64 51.92 L 129.28 51.92 L 129.28 56.64 Z M 249.6 3.68 L 247.68 8.24 A 16.75 16.75 0 0 0 244.933 6.721 A 22.872 22.872 0 0 0 242.04 5.68 Q 238.72 4.72 234.88 4.72 A 23.338 23.338 0 0 0 232.049 4.885 A 18.483 18.483 0 0 0 230.04 5.24 A 11.579 11.579 0 0 0 227.784 6.014 A 9.465 9.465 0 0 0 226.24 6.92 Q 224.64 8.08 223.72 9.84 A 7.788 7.788 0 0 0 222.989 11.98 Q 222.812 12.895 222.801 13.94 A 13.205 13.205 0 0 0 222.8 14.08 A 11.337 11.337 0 0 0 222.958 16.028 Q 223.152 17.137 223.582 18.05 A 6.684 6.684 0 0 0 223.76 18.4 A 9.273 9.273 0 0 0 226.176 21.237 A 10.772 10.772 0 0 0 226.44 21.44 A 19.161 19.161 0 0 0 228.565 22.804 A 24.797 24.797 0 0 0 230.48 23.76 Q 232.8 24.8 235.52 25.92 A 164.663 164.663 0 0 1 240.143 27.918 A 142.121 142.121 0 0 1 241.72 28.64 Q 244.64 30 246.8 31.84 Q 248.96 33.68 250.24 36.32 A 12.007 12.007 0 0 1 251.18 39.159 Q 251.451 40.483 251.506 42.009 A 21.938 21.938 0 0 1 251.52 42.8 A 17.14 17.14 0 0 1 250.956 47.33 A 11.945 11.945 0 0 1 246.28 54.08 A 18.426 18.426 0 0 1 240.55 56.779 Q 238.028 57.5 235.022 57.731 A 38.417 38.417 0 0 1 232.08 57.84 Q 228.88 57.84 226.24 57.44 A 43.579 43.579 0 0 1 223.742 56.991 A 31.81 31.81 0 0 1 221.52 56.44 Q 219.927 55.981 218.71 55.498 A 18.974 18.974 0 0 1 218 55.2 Q 216.664 54.606 215.879 54.15 A 9.746 9.746 0 0 1 215.76 54.08 L 217.52 49.36 A 15.097 15.097 0 0 0 218.075 49.676 Q 218.745 50.04 219.68 50.48 A 22.438 22.438 0 0 0 220.962 51.032 Q 221.845 51.383 222.88 51.72 Q 224.72 52.32 227.04 52.72 A 26.969 26.969 0 0 0 229.802 53.043 A 35.006 35.006 0 0 0 232.16 53.12 A 28.83 28.83 0 0 0 235.929 52.89 Q 239.765 52.383 242.24 50.76 A 7.66 7.66 0 0 0 245.582 45.737 A 12.497 12.497 0 0 0 245.84 43.12 A 13.191 13.191 0 0 0 245.663 40.898 Q 245.448 39.639 244.971 38.607 A 7.542 7.542 0 0 0 244.68 38.04 Q 243.52 36 241.6 34.6 A 19.238 19.238 0 0 0 238.695 32.864 A 23.123 23.123 0 0 0 237.2 32.2 Q 234.72 31.2 232 30.08 Q 228.56 28.72 225.84 27.28 A 23.777 23.777 0 0 1 223.104 25.597 A 18.785 18.785 0 0 1 221.2 24.04 Q 219.28 22.24 218.28 19.92 A 11.84 11.84 0 0 1 217.485 17.143 A 16.429 16.429 0 0 1 217.28 14.48 A 17.082 17.082 0 0 1 217.813 10.085 A 11.702 11.702 0 0 1 222 3.68 A 15.941 15.941 0 0 1 227.234 1.039 Q 229.481 0.357 232.175 0.123 A 34.018 34.018 0 0 1 235.12 0 Q 237.36 0 239.52 0.32 Q 241.68 0.64 243.56 1.16 A 33.329 33.329 0 0 1 245.68 1.82 A 26.77 26.77 0 0 1 247 2.32 Q 248.299 2.853 249.238 3.442 A 9.539 9.539 0 0 1 249.6 3.68 Z M 305.12 56.64 L 305.12 16.72 Q 307.44 16.08 311.36 15.28 Q 315.28 14.48 320.96 14.48 A 27.175 27.175 0 0 1 324.281 14.671 Q 326.865 14.99 328.84 15.84 A 12.894 12.894 0 0 1 332.141 17.864 A 11.381 11.381 0 0 1 333.88 19.72 A 14.796 14.796 0 0 1 335.937 23.608 A 18.614 18.614 0 0 1 336.56 25.76 A 31.53 31.53 0 0 1 337.207 29.948 A 40.236 40.236 0 0 1 337.36 33.52 L 337.36 56.64 L 332.16 56.64 L 332.16 35.2 Q 332.16 30.8 331.56 27.76 A 15.953 15.953 0 0 0 330.941 25.476 Q 330.392 23.941 329.56 22.8 Q 328.16 20.88 325.88 20.04 A 12.217 12.217 0 0 0 323.836 19.496 Q 322.815 19.311 321.634 19.242 A 25.146 25.146 0 0 0 320.16 19.2 A 57.887 57.887 0 0 0 317.541 19.256 Q 316.25 19.315 315.111 19.435 A 30.442 30.442 0 0 0 313.8 19.6 A 58.389 58.389 0 0 0 312.717 19.771 Q 311.263 20.016 310.581 20.229 A 3.564 3.564 0 0 0 310.32 20.32 L 310.32 56.64 L 305.12 56.64 Z M 372.72 16.32 L 371.52 20.96 Q 370.796 20.598 369.322 20.054 A 69.706 69.706 0 0 0 368.28 19.68 Q 366 18.88 361.6 18.88 A 15.339 15.339 0 0 0 359.173 19.066 A 13.374 13.374 0 0 0 358.28 19.24 A 9.522 9.522 0 0 0 356.554 19.809 A 7.98 7.98 0 0 0 355.52 20.36 Q 354.32 21.12 353.6 22.28 A 4.653 4.653 0 0 0 353 23.835 A 6.541 6.541 0 0 0 352.88 25.12 A 7.375 7.375 0 0 0 353 26.487 A 5.27 5.27 0 0 0 353.52 28 A 6.053 6.053 0 0 0 354.75 29.58 A 7.54 7.54 0 0 0 355.4 30.12 A 13.184 13.184 0 0 0 356.686 30.956 Q 357.372 31.351 358.174 31.72 A 22.419 22.419 0 0 0 358.44 31.84 Q 360.24 32.64 362.56 33.6 Q 364.96 34.56 367.16 35.56 A 17.853 17.853 0 0 1 369.939 37.124 A 15.459 15.459 0 0 1 371.04 37.96 Q 372.72 39.36 373.76 41.32 A 8.294 8.294 0 0 1 374.506 43.377 Q 374.726 44.342 374.781 45.466 A 15.746 15.746 0 0 1 374.8 46.24 A 11.813 11.813 0 0 1 374.269 49.878 A 9.161 9.161 0 0 1 370.6 54.72 A 14.888 14.888 0 0 1 366.249 56.714 Q 363.158 57.6 359.12 57.6 Q 354.233 57.6 351.412 56.858 A 12.301 12.301 0 0 1 350.8 56.68 A 87.184 87.184 0 0 1 349.555 56.273 Q 348.022 55.757 347.253 55.417 A 6.948 6.948 0 0 1 346.96 55.28 L 348.32 50.56 A 2.079 2.079 0 0 0 348.452 50.64 Q 348.669 50.761 349.086 50.955 A 26.773 26.773 0 0 0 349.36 51.08 A 12.936 12.936 0 0 0 349.915 51.313 Q 350.585 51.578 351.52 51.88 A 18.269 18.269 0 0 0 352.803 52.241 Q 353.475 52.405 354.24 52.547 A 33.487 33.487 0 0 0 354.76 52.64 A 20.971 20.971 0 0 0 356.52 52.859 Q 357.424 52.935 358.434 52.954 A 36.515 36.515 0 0 0 359.12 52.96 A 22.345 22.345 0 0 0 362.23 52.756 Q 364.684 52.411 366.52 51.48 Q 369.003 50.222 369.375 47.489 A 7.481 7.481 0 0 0 369.44 46.48 A 9.138 9.138 0 0 0 369.354 45.194 Q 369.253 44.485 369.034 43.885 A 5.29 5.29 0 0 0 368.92 43.6 A 5.201 5.201 0 0 0 367.96 42.145 A 6.811 6.811 0 0 0 367.2 41.44 Q 366 40.48 364.04 39.6 Q 362.693 38.995 360.91 38.239 A 286.513 286.513 0 0 0 359.2 37.52 Q 356.88 36.56 354.8 35.56 A 19.005 19.005 0 0 1 352.222 34.072 A 16.256 16.256 0 0 1 351.12 33.24 Q 349.52 31.92 348.56 30.08 Q 347.6 28.24 347.6 25.6 A 10.833 10.833 0 0 1 348.38 21.427 A 10.136 10.136 0 0 1 351.4 17.44 Q 354.711 14.721 360.178 14.372 A 26.033 26.033 0 0 1 361.84 14.32 A 41.152 41.152 0 0 1 364.696 14.413 Q 366.033 14.506 367.177 14.693 A 18.242 18.242 0 0 1 368.84 15.04 Q 370.921 15.583 372.069 16.035 A 8.103 8.103 0 0 1 372.72 16.32 Z M 208 41 A 64.598 64.598 0 0 1 206 49 A 21.493 21.493 0 0 1 200.572 54.943 Q 196.13 57.52 194.237 57.355 A 30.945 30.945 0 0 1 189.764 57.256 Q 186.92 56.87 184.64 55.92 A 17.562 17.562 0 0 1 180.371 53.42 A 15.525 15.525 0 0 1 178.32 51.44 A 17.404 17.404 0 0 1 175.031 45.603 A 20.501 20.501 0 0 1 174.72 44.6 Q 173.6 40.64 173.6 35.92 A 32.114 32.114 0 0 1 173.899 31.428 Q 174.283 28.713 175.16 26.44 A 23.475 23.475 0 0 1 177.072 22.546 A 18.544 18.544 0 0 1 179.24 19.68 Q 181.76 16.96 185 15.64 Q 188.24 14.32 191.68 14.32 A 18.811 18.811 0 0 1 197.123 15.069 A 14.553 14.553 0 0 1 203.8 19.28 A 15.204 15.204 0 0 1 206.809 24.419 Q 207.647 26.735 208.02 29.602 A 38.497 38.497 0 0 1 208.367 36.086 Z M 293.36 37.04 L 264.32 37.04 A 27.455 27.455 0 0 0 264.82 41.598 Q 265.316 44.053 266.285 46 A 13.039 13.039 0 0 0 268.08 48.72 A 10.806 10.806 0 0 0 272.816 51.843 Q 274.617 52.471 276.838 52.687 A 25.258 25.258 0 0 0 279.28 52.8 Q 283.52 52.8 286 52 Q 288.48 51.2 289.6 50.64 L 290.56 55.12 Q 289.478 55.738 286.569 56.58 A 64.598 64.598 0 0 1 286.36 56.64 A 21.493 21.493 0 0 1 283.235 57.272 Q 281.33 57.52 279.12 57.52 A 30.945 30.945 0 0 1 274.964 57.256 Q 272.12 56.87 269.84 55.92 A 17.562 17.562 0 0 1 265.571 53.42 A 15.525 15.525 0 0 1 263.52 51.44 A 17.404 17.404 0 0 1 260.231 45.603 A 20.501 20.501 0 0 1 259.92 44.6 Q 258.8 40.64 258.8 35.92 A 32.114 32.114 0 0 1 259.099 31.428 Q 259.482 28.713 260.36 26.44 A 23.475 23.475 0 0 1 262.272 22.546 A 18.544 18.544 0 0 1 264.44 19.68 Q 266.96 16.96 270.2 15.64 Q 273.44 14.32 276.88 14.32 A 18.811 18.811 0 0 1 282.323 15.069 A 14.553 14.553 0 0 1 289 19.28 A 15.204 15.204 0 0 1 292.009 24.419 Q 292.847 26.735 293.22 29.602 A 38.497 38.497 0 0 1 293.52 34.56 Q 293.52 35.2 293.48 35.84 Q 293.44 36.48 293.36 37.04 Z M 416.96 37.04 L 387.92 37.04 A 27.455 27.455 0 0 0 388.42 41.598 Q 388.916 44.053 389.885 46 A 13.039 13.039 0 0 0 391.68 48.72 A 10.806 10.806 0 0 0 396.416 51.843 Q 398.217 52.471 400.438 52.687 A 25.258 25.258 0 0 0 402.88 52.8 Q 407.12 52.8 409.6 52 Q 412.08 51.2 413.2 50.64 L 414.16 55.12 Q 413.078 55.738 410.169 56.58 A 64.598 64.598 0 0 1 409.96 56.64 A 21.493 21.493 0 0 1 406.835 57.272 Q 404.93 57.52 402.72 57.52 A 30.945 30.945 0 0 1 398.564 57.256 Q 395.72 56.87 393.44 55.92 A 17.562 17.562 0 0 1 389.171 53.42 A 15.525 15.525 0 0 1 387.12 51.44 A 17.404 17.404 0 0 1 383.831 45.603 A 20.501 20.501 0 0 1 383.52 44.6 Q 382.4 40.64 382.4 35.92 A 32.114 32.114 0 0 1 382.699 31.428 Q 383.083 28.713 383.96 26.44 A 23.475 23.475 0 0 1 385.872 22.546 A 18.544 18.544 0 0 1 388.04 19.68 Q 390.56 16.96 393.8 15.64 Q 397.04 14.32 400.48 14.32 A 18.811 18.811 0 0 1 405.923 15.069 A 14.553 14.553 0 0 1 412.6 19.28 A 15.204 15.204 0 0 1 415.609 24.419 Q 416.447 26.735 416.82 29.602 A 38.497 38.497 0 0 1 417.12 34.56 Q 417.12 35.2 417.08 35.84 Q 417.04 36.48 416.96 37.04 Z M 166.64 16.32 L 165.28 20.8 Q 163.68 20 161.68 19.52 Q 159.771 19.062 156.624 19.041 A 45.751 45.751 0 0 0 156.32 19.04 A 16.938 16.938 0 0 0 152.072 19.541 A 11.349 11.349 0 0 0 145.88 23.48 A 14.718 14.718 0 0 0 143.354 28.364 Q 142.32 31.681 142.32 36.08 Q 142.32 39.76 143.12 42.84 Q 143.92 45.92 145.72 48.12 A 11.888 11.888 0 0 0 149.498 51.149 A 14.218 14.218 0 0 0 150.36 51.56 A 13.871 13.871 0 0 0 153.295 52.45 Q 154.658 52.713 156.218 52.778 A 25.272 25.272 0 0 0 157.28 52.8 Q 159.852 52.8 161.792 52.355 A 12.216 12.216 0 0 0 162.92 52.04 Q 165.2 51.28 166.24 50.72 L 167.36 55.2 A 9.223 9.223 0 0 1 166.42 55.647 Q 165.054 56.214 162.84 56.76 Q 159.76 57.52 156.4 57.52 A 25.873 25.873 0 0 1 152.146 57.186 A 19.38 19.38 0 0 1 147.92 56 A 16.294 16.294 0 0 1 143.012 52.899 A 15.376 15.376 0 0 1 141.8 51.64 A 18.752 18.752 0 0 1 138.744 46.635 A 22.581 22.581 0 0 1 138.08 44.84 A 26.262 26.262 0 0 1 136.965 39.422 A 32.844 32.844 0 0 1 136.8 36.08 A 31.261 31.261 0 0 1 137.206 30.937 A 25.056 25.056 0 0 1 138.12 27.2 Q 139.44 23.2 141.92 20.32 Q 144.4 17.44 147.92 15.88 A 18.152 18.152 0 0 1 153.176 14.472 A 22.691 22.691 0 0 1 155.84 14.32 A 35.742 35.742 0 0 1 159.868 14.539 A 29.775 29.775 0 0 1 162.12 14.88 A 25.693 25.693 0 0 1 163.816 15.261 Q 165.483 15.7 166.566 16.28 A 7.412 7.412 0 0 1 166.64 16.32 Z M 198.937 49.916 A 24.352 24.352 0 0 0 202.562 28.698 Q 201.855 24.979 199.92 22.56 A 9.365 9.365 0 0 0 193.656 19.087 A 13.693 13.693 0 0 0 191.76 18.96 A 12.002 12.002 0 0 0 188.954 19.276 A 9.912 9.912 0 0 0 186.76 20.08 Q 184.56 21.2 182.92 23.08 A 13.879 13.879 0 0 0 180.433 27.247 A 15.729 15.729 0 0 0 180.36 27.44 Q 179.44 29.92 179 36 C 179 40 181 47 183 49 C 185 51 187 52 188.949 52.442 C 191 53 193.597 52.442 196.153 51.512 Z M 264.48 32.64 L 288.16 32.64 A 24.352 24.352 0 0 0 287.762 28.698 Q 287.055 24.979 285.12 22.56 A 9.365 9.365 0 0 0 278.856 19.087 A 13.693 13.693 0 0 0 276.96 18.96 A 12.002 12.002 0 0 0 274.154 19.276 A 9.912 9.912 0 0 0 271.96 20.08 Q 269.76 21.2 268.12 23.08 A 13.879 13.879 0 0 0 265.633 27.247 A 15.729 15.729 0 0 0 265.56 27.44 Q 264.64 29.92 264.48 32.64 Z M 388.08 32.64 L 411.76 32.64 A 24.352 24.352 0 0 0 411.362 28.698 Q 410.655 24.979 408.72 22.56 A 9.365 9.365 0 0 0 402.456 19.087 A 13.693 13.693 0 0 0 400.56 18.96 A 12.002 12.002 0 0 0 397.754 19.276 A 9.912 9.912 0 0 0 395.56 20.08 Q 393.36 21.2 391.72 23.08 A 13.879 13.879 0 0 0 389.233 27.247 A 15.729 15.729 0 0 0 389.16 27.44 Q 388.24 29.92 388.08 32.64 Z Z Z Z Z"
         id="text979"
         aria-label="EcoSense" />
    </g>
  </g>
</svg>
