<?xml version="1.0" encoding="UTF-8" standalone="no"?>
<svg
   id="svg8"
   version="1.1"
   viewBox="0 0 650.52395 63.977134"
   height="63.977139mm"
   width="346.52396mm"
   xmlns="http://www.w3.org/2000/svg"
   xmlns:svg="http://www.w3.org/2000/svg"
   xmlns:rdf="http://www.w3.org/1999/02/22-rdf-syntax-ns#"
   xmlns:cc="http://creativecommons.org/ns#"
   xmlns:dc="http://purl.org/dc/elements/1.1/">
  <defs
     id="defs2" />
  <metadata
     id="metadata5">
    <rdf:RDF>
      <cc:Work
         rdf:about="">
        <dc:format>image/svg+xml</dc:format>
        <dc:type
           rdf:resource="http://purl.org/dc/dcmitype/StillImage" />
      </cc:Work>
    </rdf:RDF>
  </metadata>
  <g
     id="g2149">
    <g
       id="g2141">
      <g
         id="g2106"
         transform="matrix(0.96564264,0,0,0.96251987,-899.3295,194.86874)">
        <circle
           style="fill:#009688;fill-opacity:0.980392;stroke:none;stroke-width:0.141404;stop-color:#000000"
           id="path875-5-9-7-3-2-3-9-9-8-0-0-5-87-7"
           cx="964.56165"
           cy="-169.22266"
           r="33.234192" />
        <path
           id="rect1249-6-3-4-4-3-6-6-1-2"
           style="fill:#ffffff;fill-opacity:0.980392;stroke:none;stroke-width:0.146895;stop-color:#000000"
           d="m 984 -183 z C 949 -186 941 -170 951 -161 C 953 -166 955 -169 970 -176 C 960 -169 955 -165 952.532 -160.12 C 971 -160 977 -160 984 -183 M 947 -152 C 951 -158 951 -165 960 -170 C 954 -165 950 -159 949 -150 C 948 -149 946 -149 947 -152" />
      </g>
      <path
         style="font-size:79.7151px;line-height:1.25;font-family:Ubuntu;-inkscape-font-specification:Ubuntu;letter-spacing:0px;word-spacing:0px;fill:#009688;stroke-width:1.99288"
         d="M 278.96 30.44 L 275.36 30.44 L 275.36 9.64 L 278.84 9.64 L 278.84 13.12 Q 279.96 11.44 281.68 10.3 Q 283.4 9.16 285.6 9.16 A 8.397 8.397 0 0 1 287.367 9.336 Q 288.561 9.593 289.474 10.225 A 5.251 5.251 0 0 1 289.66 10.36 A 6.3 6.3 0 0 1 291.839 13.436 A 7.661 7.661 0 0 1 291.88 13.56 Q 293.12 11.72 294.82 10.44 Q 296.52 9.16 299.04 9.16 A 8.575 8.575 0 0 1 300.995 9.369 Q 302.429 9.705 303.425 10.58 A 5.198 5.198 0 0 1 304.1 11.3 A 7.597 7.597 0 0 1 305.465 14.209 Q 305.723 15.276 305.755 16.521 A 13.839 13.839 0 0 1 305.76 16.88 L 305.76 30.44 L 302.16 30.44 L 302.16 17.16 A 7.617 7.617 0 0 0 302.025 15.684 Q 301.851 14.802 301.451 14.105 A 4.393 4.393 0 0 0 301.16 13.66 A 3.19 3.19 0 0 0 298.835 12.342 A 4.271 4.271 0 0 0 298.4 12.32 A 4.77 4.77 0 0 0 295.696 13.171 A 6.398 6.398 0 0 0 295.06 13.66 Q 293.52 15 292.36 16.8 L 292.36 30.44 L 288.76 30.44 L 288.76 17.16 A 7.617 7.617 0 0 0 288.625 15.684 Q 288.451 14.802 288.051 14.105 A 4.393 4.393 0 0 0 287.76 13.66 A 3.19 3.19 0 0 0 285.435 12.342 A 4.271 4.271 0 0 0 285 12.32 A 4.808 4.808 0 0 0 282.472 13.051 A 6.498 6.498 0 0 0 281.68 13.62 Q 280.12 14.92 278.96 16.68 L 278.96 30.44 Z M 472.48 30.44 L 468.88 30.44 L 468.88 9.64 L 472.36 9.64 L 472.36 13.12 Q 473.48 11.44 475.2 10.3 Q 476.92 9.16 479.12 9.16 A 8.397 8.397 0 0 1 480.887 9.336 Q 482.081 9.593 482.994 10.225 A 5.251 5.251 0 0 1 483.18 10.36 A 6.3 6.3 0 0 1 485.359 13.436 A 7.661 7.661 0 0 1 485.4 13.56 Q 486.64 11.72 488.34 10.44 Q 490.04 9.16 492.56 9.16 A 8.575 8.575 0 0 1 494.515 9.369 Q 495.949 9.705 496.945 10.58 A 5.198 5.198 0 0 1 497.62 11.3 A 7.597 7.597 0 0 1 498.985 14.209 Q 499.243 15.276 499.275 16.521 A 13.839 13.839 0 0 1 499.28 16.88 L 499.28 30.44 L 495.68 30.44 L 495.68 17.16 A 7.617 7.617 0 0 0 495.545 15.684 Q 495.371 14.802 494.971 14.105 A 4.393 4.393 0 0 0 494.68 13.66 A 3.19 3.19 0 0 0 492.355 12.342 A 4.271 4.271 0 0 0 491.92 12.32 A 4.77 4.77 0 0 0 489.216 13.171 A 6.398 6.398 0 0 0 488.58 13.66 Q 487.04 15 485.88 16.8 L 485.88 30.44 L 482.28 30.44 L 482.28 17.16 A 7.617 7.617 0 0 0 482.145 15.684 Q 481.971 14.802 481.571 14.105 A 4.393 4.393 0 0 0 481.28 13.66 A 3.19 3.19 0 0 0 478.955 12.342 A 4.271 4.271 0 0 0 478.52 12.32 A 4.808 4.808 0 0 0 475.992 13.051 A 6.498 6.498 0 0 0 475.2 13.62 Q 473.64 14.92 472.48 16.68 L 472.48 30.44 Z M 87.2 30.44 L 70.4 30.44 L 70.4 2.44 L 87.2 2.44 L 87.2 5.72 L 74.2 5.72 L 74.2 14.24 L 85.4 14.24 L 85.4 17.44 L 74.2 17.44 L 74.2 27.16 L 87.2 27.16 L 87.2 30.44 Z M 246.92 3.4 L 245.76 6.6 Q 244.52 6 243.22 5.64 Q 242.103 5.331 240.646 5.287 A 16.282 16.282 0 0 0 240.16 5.28 A 8.469 8.469 0 0 0 236.998 5.862 A 7.992 7.992 0 0 0 235.58 6.6 A 8.467 8.467 0 0 0 233.034 9.233 A 10.791 10.791 0 0 0 232.4 10.4 Q 231.24 12.88 231.24 16.4 A 16.745 16.745 0 0 0 231.486 19.342 A 12.372 12.372 0 0 0 232.38 22.28 A 10.271 10.271 0 0 0 233.815 24.611 A 8.569 8.569 0 0 0 235.54 26.2 Q 237.56 27.6 240.16 27.6 A 13.486 13.486 0 0 0 241.748 27.511 Q 242.553 27.416 243.246 27.217 A 7.712 7.712 0 0 0 243.56 27.12 Q 245 26.64 246.36 25.88 L 247.52 29.04 Q 246.04 29.84 244.14 30.38 A 13.437 13.437 0 0 1 242.154 30.776 Q 241.161 30.902 240.042 30.918 A 22.967 22.967 0 0 1 239.72 30.92 A 12.954 12.954 0 0 1 235.99 30.4 A 11.184 11.184 0 0 1 233.28 29.18 Q 230.48 27.44 228.92 24.22 A 15.044 15.044 0 0 1 227.68 20.333 Q 227.36 18.572 227.36 16.56 Q 227.36 12.28 228.94 8.98 Q 230.52 5.68 233.42 3.82 A 11.748 11.748 0 0 1 238.492 2.055 A 14.917 14.917 0 0 1 240.2 1.96 A 18.256 18.256 0 0 1 242.223 2.067 A 14.08 14.08 0 0 1 243.84 2.34 Q 245.48 2.72 246.92 3.4 Z M 90 28.76 L 91.52 25.76 A 7.423 7.423 0 0 0 92.777 26.61 Q 93.395 26.945 94.128 27.216 A 12.168 12.168 0 0 0 94.14 27.22 A 9.629 9.629 0 0 0 97.184 27.795 A 10.986 10.986 0 0 0 97.52 27.8 A 10.845 10.845 0 0 0 98.753 27.735 Q 100.027 27.588 100.814 27.114 A 3.096 3.096 0 0 0 100.9 27.06 A 2.98 2.98 0 0 0 101.513 26.543 A 2.021 2.021 0 0 0 102.04 25.16 A 2.849 2.849 0 0 0 101.914 24.301 A 2.485 2.485 0 0 0 101.62 23.68 Q 101.218 23.067 100.173 22.472 A 8.924 8.924 0 0 0 100.08 22.42 Q 99.068 21.86 97.241 21.218 A 41.443 41.443 0 0 0 96.84 21.08 A 18.647 18.647 0 0 1 95.081 20.383 Q 94.235 19.993 93.565 19.558 A 7.734 7.734 0 0 1 92.46 18.7 A 4.53 4.53 0 0 1 91.143 16.301 A 6.718 6.718 0 0 1 91 14.88 Q 91 12.48 93.1 10.82 A 7.106 7.106 0 0 1 95.514 9.601 Q 96.537 9.298 97.763 9.203 A 15.011 15.011 0 0 1 98.92 9.16 A 16.318 16.318 0 0 1 100.698 9.252 Q 101.621 9.354 102.428 9.566 A 10.073 10.073 0 0 1 102.48 9.58 A 15.508 15.508 0 0 1 104.134 10.122 A 12.444 12.444 0 0 1 105.28 10.64 L 104.28 13.6 A 9.811 9.811 0 0 0 102.813 12.894 A 12.077 12.077 0 0 0 101.82 12.56 A 10.01 10.01 0 0 0 100.027 12.221 A 12.735 12.735 0 0 0 98.76 12.16 Q 97.426 12.16 96.503 12.506 A 3.404 3.404 0 0 0 95.6 13 A 3.729 3.729 0 0 0 95.057 13.509 Q 94.776 13.837 94.642 14.186 A 1.812 1.812 0 0 0 94.52 14.84 A 1.968 1.968 0 0 0 95.118 16.261 A 2.833 2.833 0 0 0 95.36 16.48 Q 96.2 17.16 98.64 17.96 Q 102.063 19.101 103.693 20.452 A 5.979 5.979 0 0 1 104.16 20.88 A 5.439 5.439 0 0 1 105.714 24.579 A 7.158 7.158 0 0 1 105.72 24.88 Q 105.72 27.68 103.46 29.3 Q 101.564 30.659 98.585 30.878 A 16.169 16.169 0 0 1 97.4 30.92 A 15.996 15.996 0 0 1 95.055 30.756 A 12.379 12.379 0 0 1 93.14 30.32 Q 91.24 29.72 90 28.76 Z M 525.44 28.76 L 526.96 25.76 A 7.423 7.423 0 0 0 528.217 26.61 Q 528.835 26.945 529.568 27.216 A 12.168 12.168 0 0 0 529.58 27.22 A 9.629 9.629 0 0 0 532.624 27.795 A 10.986 10.986 0 0 0 532.96 27.8 A 10.845 10.845 0 0 0 534.193 27.735 Q 535.467 27.588 536.254 27.114 A 3.096 3.096 0 0 0 536.34 27.06 A 2.98 2.98 0 0 0 536.953 26.543 A 2.021 2.021 0 0 0 537.48 25.16 A 2.849 2.849 0 0 0 537.354 24.301 A 2.485 2.485 0 0 0 537.06 23.68 Q 536.658 23.067 535.613 22.472 A 8.924 8.924 0 0 0 535.52 22.42 Q 534.508 21.86 532.681 21.218 A 41.443 41.443 0 0 0 532.28 21.08 A 18.647 18.647 0 0 1 530.521 20.383 Q 529.675 19.993 529.005 19.558 A 7.734 7.734 0 0 1 527.9 18.7 A 4.53 4.53 0 0 1 526.583 16.301 A 6.718 6.718 0 0 1 526.44 14.88 Q 526.44 12.48 528.54 10.82 A 7.106 7.106 0 0 1 530.954 9.601 Q 531.977 9.298 533.203 9.203 A 15.011 15.011 0 0 1 534.36 9.16 A 16.318 16.318 0 0 1 536.138 9.252 Q 537.061 9.354 537.868 9.566 A 10.073 10.073 0 0 1 537.92 9.58 A 15.508 15.508 0 0 1 539.574 10.122 A 12.444 12.444 0 0 1 540.72 10.64 L 539.72 13.6 A 9.811 9.811 0 0 0 538.253 12.894 A 12.077 12.077 0 0 0 537.26 12.56 A 10.01 10.01 0 0 0 535.467 12.221 A 12.735 12.735 0 0 0 534.2 12.16 Q 532.866 12.16 531.943 12.506 A 3.404 3.404 0 0 0 531.04 13 A 3.729 3.729 0 0 0 530.497 13.509 Q 530.216 13.837 530.082 14.186 A 1.812 1.812 0 0 0 529.96 14.84 A 1.968 1.968 0 0 0 530.558 16.261 A 2.833 2.833 0 0 0 530.8 16.48 Q 531.64 17.16 534.08 17.96 Q 537.503 19.101 539.133 20.452 A 5.979 5.979 0 0 1 539.6 20.88 A 5.439 5.439 0 0 1 541.154 24.579 A 7.158 7.158 0 0 1 541.16 24.88 Q 541.16 27.68 538.9 29.3 Q 537.004 30.659 534.025 30.878 A 16.169 16.169 0 0 1 532.84 30.92 A 15.996 15.996 0 0 1 530.495 30.756 A 12.379 12.379 0 0 1 528.58 30.32 Q 526.68 29.72 525.44 28.76 Z M 522.32 21.52 L 507.76 21.52 Q 508.095 24.24 509.576 25.85 A 5.992 5.992 0 0 0 509.8 26.08 A 5.658 5.658 0 0 0 512.85 27.604 A 8.008 8.008 0 0 0 514.24 27.72 Q 516.04 27.72 517.48 27.34 Q 518.92 26.96 520.24 26.36 L 521.08 29.44 Q 519.64 30.08 517.84 30.5 A 15.566 15.566 0 0 1 515.803 30.828 A 20.81 20.81 0 0 1 513.8 30.92 A 11.327 11.327 0 0 1 510.702 30.518 A 8.443 8.443 0 0 1 506.7 28.06 Q 504.377 25.524 504.114 21.18 A 18.85 18.85 0 0 1 504.08 20.04 Q 504.08 16.92 505.26 14.46 A 9.857 9.857 0 0 1 507.266 11.627 A 9.155 9.155 0 0 1 508.56 10.58 A 8.419 8.419 0 0 1 512.664 9.191 A 10.482 10.482 0 0 1 513.48 9.16 Q 516.194 9.16 518.074 10.224 A 6.885 6.885 0 0 1 518.46 10.46 Q 520.44 11.76 521.44 13.96 Q 522.44 16.16 522.44 18.8 A 30.081 30.081 0 0 1 522.324 21.479 A 27.836 27.836 0 0 1 522.32 21.52 Z M 111.32 23.28 L 111.32 13.52 L 107.72 13.52 L 107.72 10.4 L 111.4 10.4 L 112.16 3.84 L 114.92 3.84 L 114.92 10.4 L 120.68 10.4 L 120.68 13.52 L 114.92 13.52 L 114.92 23.56 A 8.623 8.623 0 0 0 114.987 24.678 Q 115.147 25.898 115.689 26.572 A 2.223 2.223 0 0 0 115.9 26.8 Q 116.88 27.72 118.24 27.72 Q 119.24 27.72 120.14 27.4 A 10.293 10.293 0 0 0 121.411 26.853 A 9.107 9.107 0 0 0 121.8 26.64 L 122.8 29.52 Q 122 30 120.64 30.46 Q 119.28 30.92 117.8 30.92 A 7.331 7.331 0 0 1 115.727 30.642 A 5.574 5.574 0 0 1 113.06 28.94 A 6.446 6.446 0 0 1 111.769 26.579 Q 111.464 25.607 111.366 24.432 A 13.911 13.911 0 0 1 111.32 23.28 Z M 337.44 23.28 L 337.44 13.52 L 333.84 13.52 L 333.84 10.4 L 337.52 10.4 L 338.28 3.84 L 341.04 3.84 L 341.04 10.4 L 346.8 10.4 L 346.8 13.52 L 341.04 13.52 L 341.04 23.56 A 8.623 8.623 0 0 0 341.107 24.678 Q 341.267 25.898 341.809 26.572 A 2.223 2.223 0 0 0 342.02 26.8 Q 343 27.72 344.36 27.72 Q 345.36 27.72 346.26 27.4 A 10.293 10.293 0 0 0 347.531 26.853 A 9.107 9.107 0 0 0 347.92 26.64 L 348.92 29.52 Q 348.12 30 346.76 30.46 Q 345.4 30.92 343.92 30.92 A 7.331 7.331 0 0 1 341.847 30.642 A 5.574 5.574 0 0 1 339.18 28.94 A 6.446 6.446 0 0 1 337.889 26.579 Q 337.584 25.607 337.486 24.432 A 13.911 13.911 0 0 1 337.44 23.28 Z M 546.76 23.28 L 546.76 13.52 L 543.16 13.52 L 543.16 10.4 L 546.84 10.4 L 547.6 3.84 L 550.36 3.84 L 550.36 10.4 L 556.12 10.4 L 556.12 13.52 L 550.36 13.52 L 550.36 23.56 A 8.623 8.623 0 0 0 550.427 24.678 Q 550.587 25.898 551.129 26.572 A 2.223 2.223 0 0 0 551.34 26.8 Q 552.32 27.72 553.68 27.72 Q 554.68 27.72 555.58 27.4 A 10.293 10.293 0 0 0 556.851 26.853 A 9.107 9.107 0 0 0 557.24 26.64 L 558.24 29.52 Q 557.44 30 556.08 30.46 Q 554.72 30.92 553.24 30.92 A 7.331 7.331 0 0 1 551.167 30.642 A 5.574 5.574 0 0 1 548.5 28.94 A 6.446 6.446 0 0 1 547.209 26.579 Q 546.904 25.607 546.806 24.432 A 13.911 13.911 0 0 1 546.76 23.28 Z M 418.08 30.36 L 418.08 2.52 Q 419.96 2.32 421.76 2.22 Q 423.56 2.12 425.88 2.12 Q 429.225 2.12 431.724 3.087 A 11.679 11.679 0 0 1 432.1 3.24 Q 434.72 4.36 436.42 6.32 Q 438.12 8.28 438.94 10.86 A 17.702 17.702 0 0 1 439.729 15.258 A 20.603 20.603 0 0 1 439.76 16.4 A 18.123 18.123 0 0 1 439.168 21.079 A 16.721 16.721 0 0 1 438.92 21.92 Q 438.08 24.52 436.34 26.5 Q 434.6 28.48 431.9 29.62 Q 429.2 30.76 425.44 30.76 Q 423.16 30.76 421.46 30.64 Q 419.76 30.52 418.08 30.36 Z M 164.24 10.4 L 163.16 13.44 A 12.169 12.169 0 0 0 161.998 12.93 A 9.368 9.368 0 0 0 161.02 12.62 A 8.217 8.217 0 0 0 159.803 12.41 A 10.542 10.542 0 0 0 158.76 12.36 A 6.356 6.356 0 0 0 155.859 13.017 A 6.453 6.453 0 0 0 154.06 14.38 Q 152.256 16.297 152.165 19.602 A 12.91 12.91 0 0 0 152.16 19.96 Q 152.16 22.12 152.96 23.88 A 7.425 7.425 0 0 0 154.124 25.711 A 6.51 6.51 0 0 0 155.18 26.68 A 5.385 5.385 0 0 0 158.048 27.704 A 6.762 6.762 0 0 0 158.52 27.72 A 11.368 11.368 0 0 0 159.682 27.664 Q 160.255 27.605 160.747 27.484 A 6.032 6.032 0 0 0 161.12 27.38 Q 162.2 27.04 163.44 26.4 L 164.56 29.44 A 11.415 11.415 0 0 1 162.713 30.243 A 13.716 13.716 0 0 1 161.78 30.52 Q 160.264 30.914 158.341 30.92 A 19.123 19.123 0 0 1 158.28 30.92 A 10.721 10.721 0 0 1 155.465 30.564 A 8.83 8.83 0 0 1 153.1 29.54 Q 150.88 28.16 149.68 25.7 A 11.745 11.745 0 0 1 148.625 22.176 A 15.208 15.208 0 0 1 148.48 20.04 A 12.815 12.815 0 0 1 149.005 16.326 A 11.519 11.519 0 0 1 149.7 14.56 Q 150.92 12.08 153.2 10.62 A 9.227 9.227 0 0 1 157.067 9.252 A 11.843 11.843 0 0 1 158.56 9.16 A 16.524 16.524 0 0 1 160.02 9.221 Q 160.906 9.3 161.66 9.48 Q 163 9.8 164.24 10.4 Z M 376.88 10.4 L 375.8 13.44 A 12.169 12.169 0 0 0 374.638 12.93 A 9.368 9.368 0 0 0 373.66 12.62 A 8.217 8.217 0 0 0 372.443 12.41 A 10.542 10.542 0 0 0 371.4 12.36 A 6.356 6.356 0 0 0 368.499 13.017 A 6.453 6.453 0 0 0 366.7 14.38 Q 364.896 16.297 364.805 19.602 A 12.91 12.91 0 0 0 364.8 19.96 Q 364.8 22.12 365.6 23.88 A 7.425 7.425 0 0 0 366.764 25.711 A 6.51 6.51 0 0 0 367.82 26.68 A 5.385 5.385 0 0 0 370.688 27.704 A 6.762 6.762 0 0 0 371.16 27.72 A 11.368 11.368 0 0 0 372.322 27.664 Q 372.895 27.605 373.387 27.484 A 6.032 6.032 0 0 0 373.76 27.38 Q 374.84 27.04 376.08 26.4 L 377.2 29.44 A 11.415 11.415 0 0 1 375.353 30.243 A 13.716 13.716 0 0 1 374.42 30.52 Q 372.904 30.914 370.981 30.92 A 19.123 19.123 0 0 1 370.92 30.92 A 10.721 10.721 0 0 1 368.105 30.564 A 8.83 8.83 0 0 1 365.74 29.54 Q 363.52 28.16 362.32 25.7 A 11.745 11.745 0 0 1 361.265 22.176 A 15.208 15.208 0 0 1 361.12 20.04 A 12.815 12.815 0 0 1 361.645 16.326 A 11.519 11.519 0 0 1 362.34 14.56 Q 363.56 12.08 365.84 10.62 A 9.227 9.227 0 0 1 369.707 9.252 A 11.843 11.843 0 0 1 371.2 9.16 A 16.524 16.524 0 0 1 372.66 9.221 Q 373.546 9.3 374.3 9.48 Q 375.64 9.8 376.88 10.4 Z M 586.2 10.4 L 585.12 13.44 A 12.169 12.169 0 0 0 583.958 12.93 A 9.368 9.368 0 0 0 582.98 12.62 A 8.217 8.217 0 0 0 581.763 12.41 A 10.542 10.542 0 0 0 580.72 12.36 A 6.356 6.356 0 0 0 577.819 13.017 A 6.453 6.453 0 0 0 576.02 14.38 Q 574.216 16.297 574.125 19.602 A 12.91 12.91 0 0 0 574.12 19.96 Q 574.12 22.12 574.92 23.88 A 7.425 7.425 0 0 0 576.084 25.711 A 6.51 6.51 0 0 0 577.14 26.68 A 5.385 5.385 0 0 0 580.008 27.704 A 6.762 6.762 0 0 0 580.48 27.72 A 11.368 11.368 0 0 0 581.642 27.664 Q 582.215 27.605 582.707 27.484 A 6.032 6.032 0 0 0 583.08 27.38 Q 584.16 27.04 585.4 26.4 L 586.52 29.44 A 11.415 11.415 0 0 1 584.673 30.243 A 13.716 13.716 0 0 1 583.74 30.52 Q 582.224 30.914 580.301 30.92 A 19.123 19.123 0 0 1 580.24 30.92 A 10.721 10.721 0 0 1 577.425 30.564 A 8.83 8.83 0 0 1 575.06 29.54 Q 572.84 28.16 571.64 25.7 A 11.745 11.745 0 0 1 570.585 22.176 A 15.208 15.208 0 0 1 570.44 20.04 A 12.815 12.815 0 0 1 570.965 16.326 A 11.519 11.519 0 0 1 571.66 14.56 Q 572.88 12.08 575.16 10.62 A 9.227 9.227 0 0 1 579.027 9.252 A 11.843 11.843 0 0 1 580.52 9.16 A 16.524 16.524 0 0 1 581.98 9.221 Q 582.866 9.3 583.62 9.48 Q 584.96 9.8 586.2 10.4 Z M 139.84 11.32 L 139.84 9.64 L 143.12 9.64 L 143.12 25.4 Q 143.12 26.92 143.86 27.38 Q 144.6 27.84 145.48 27.84 L 144.72 30.64 A 7.089 7.089 0 0 1 143.014 30.451 Q 140.759 29.891 140.121 27.672 A 5.436 5.436 0 0 1 140.08 27.52 A 8.523 8.523 0 0 1 138.836 28.89 A 11.399 11.399 0 0 1 137.58 29.86 A 5.971 5.971 0 0 1 135.599 30.701 Q 134.792 30.891 133.851 30.916 A 10.882 10.882 0 0 1 133.56 30.92 Q 130.96 30.92 128.84 29.6 A 9.179 9.179 0 0 1 125.875 26.589 A 11.169 11.169 0 0 1 125.46 25.86 A 10.891 10.891 0 0 1 124.408 22.683 A 14.658 14.658 0 0 1 124.2 20.16 A 13.257 13.257 0 0 1 124.599 16.853 A 11.187 11.187 0 0 1 125.46 14.56 Q 126.72 12.08 128.94 10.62 A 8.919 8.919 0 0 1 133.418 9.177 A 10.955 10.955 0 0 1 134.04 9.16 A 9.034 9.034 0 0 1 135.957 9.356 A 7.481 7.481 0 0 1 137.3 9.78 A 10.401 10.401 0 0 1 139.015 10.697 A 8.841 8.841 0 0 1 139.84 11.32 Z M 182.6 11.32 L 182.6 9.64 L 185.88 9.64 L 185.88 25.4 Q 185.88 26.92 186.62 27.38 Q 187.36 27.84 188.24 27.84 L 187.48 30.64 A 7.089 7.089 0 0 1 185.774 30.451 Q 183.519 29.891 182.881 27.672 A 5.436 5.436 0 0 1 182.84 27.52 A 8.523 8.523 0 0 1 181.596 28.89 A 11.399 11.399 0 0 1 180.34 29.86 A 5.971 5.971 0 0 1 178.359 30.701 Q 177.552 30.891 176.611 30.916 A 10.882 10.882 0 0 1 176.32 30.92 Q 173.72 30.92 171.6 29.6 A 9.179 9.179 0 0 1 168.635 26.589 A 11.169 11.169 0 0 1 168.22 25.86 A 10.891 10.891 0 0 1 167.168 22.683 A 14.658 14.658 0 0 1 166.96 20.16 A 13.257 13.257 0 0 1 167.359 16.853 A 11.187 11.187 0 0 1 168.22 14.56 Q 169.48 12.08 171.7 10.62 A 8.919 8.919 0 0 1 176.178 9.177 A 10.955 10.955 0 0 1 176.8 9.16 A 9.034 9.034 0 0 1 178.717 9.356 A 7.481 7.481 0 0 1 180.06 9.78 A 10.401 10.401 0 0 1 181.775 10.697 A 8.841 8.841 0 0 1 182.6 11.32 Z M 326.2 11.32 L 326.2 9.64 L 329.48 9.64 L 329.48 25.4 Q 329.48 26.92 330.22 27.38 Q 330.96 27.84 331.84 27.84 L 331.08 30.64 A 7.089 7.089 0 0 1 329.374 30.451 Q 327.119 29.891 326.481 27.672 A 5.436 5.436 0 0 1 326.44 27.52 A 8.523 8.523 0 0 1 325.196 28.89 A 11.399 11.399 0 0 1 323.94 29.86 A 5.971 5.971 0 0 1 321.959 30.701 Q 321.152 30.891 320.211 30.916 A 10.882 10.882 0 0 1 319.92 30.92 Q 317.32 30.92 315.2 29.6 A 9.179 9.179 0 0 1 312.235 26.589 A 11.169 11.169 0 0 1 311.82 25.86 A 10.891 10.891 0 0 1 310.768 22.683 A 14.658 14.658 0 0 1 310.56 20.16 A 13.257 13.257 0 0 1 310.959 16.853 A 11.187 11.187 0 0 1 311.82 14.56 Q 313.08 12.08 315.3 10.62 A 8.919 8.919 0 0 1 319.778 9.177 A 10.955 10.955 0 0 1 320.4 9.16 A 9.034 9.034 0 0 1 322.317 9.356 A 7.481 7.481 0 0 1 323.66 9.78 A 10.401 10.401 0 0 1 325.375 10.697 A 8.841 8.841 0 0 1 326.2 11.32 Z M 395.24 11.32 L 395.24 9.64 L 398.52 9.64 L 398.52 25.4 Q 398.52 26.92 399.26 27.38 Q 400 27.84 400.88 27.84 L 400.12 30.64 A 7.089 7.089 0 0 1 398.414 30.451 Q 396.159 29.891 395.521 27.672 A 5.436 5.436 0 0 1 395.48 27.52 A 8.523 8.523 0 0 1 394.236 28.89 A 11.399 11.399 0 0 1 392.98 29.86 A 5.971 5.971 0 0 1 390.999 30.701 Q 390.192 30.891 389.251 30.916 A 10.882 10.882 0 0 1 388.96 30.92 Q 386.36 30.92 384.24 29.6 A 9.179 9.179 0 0 1 381.275 26.589 A 11.169 11.169 0 0 1 380.86 25.86 A 10.891 10.891 0 0 1 379.808 22.683 A 14.658 14.658 0 0 1 379.6 20.16 A 13.257 13.257 0 0 1 379.999 16.853 A 11.187 11.187 0 0 1 380.86 14.56 Q 382.12 12.08 384.34 10.62 A 8.919 8.919 0 0 1 388.818 9.177 A 10.955 10.955 0 0 1 389.44 9.16 A 9.034 9.034 0 0 1 391.357 9.356 A 7.481 7.481 0 0 1 392.7 9.78 A 10.401 10.401 0 0 1 394.415 10.697 A 8.841 8.841 0 0 1 395.24 11.32 Z M 604.56 11.32 L 604.56 9.64 L 607.84 9.64 L 607.84 25.4 Q 607.84 26.92 608.58 27.38 Q 609.32 27.84 610.2 27.84 L 609.44 30.64 A 7.089 7.089 0 0 1 607.734 30.451 Q 605.479 29.891 604.841 27.672 A 5.436 5.436 0 0 1 604.8 27.52 A 8.523 8.523 0 0 1 603.556 28.89 A 11.399 11.399 0 0 1 602.3 29.86 A 5.971 5.971 0 0 1 600.319 30.701 Q 599.512 30.891 598.571 30.916 A 10.882 10.882 0 0 1 598.28 30.92 Q 595.68 30.92 593.56 29.6 A 9.179 9.179 0 0 1 590.595 26.589 A 11.169 11.169 0 0 1 590.18 25.86 A 10.891 10.891 0 0 1 589.128 22.683 A 14.658 14.658 0 0 1 588.92 20.16 A 13.257 13.257 0 0 1 589.319 16.853 A 11.187 11.187 0 0 1 590.18 14.56 Q 591.44 12.08 593.66 10.62 A 8.919 8.919 0 0 1 598.138 9.177 A 10.955 10.955 0 0 1 598.76 9.16 A 9.034 9.034 0 0 1 600.677 9.356 A 7.481 7.481 0 0 1 602.02 9.78 A 10.401 10.401 0 0 1 603.735 10.697 A 8.841 8.841 0 0 1 604.56 11.32 Z M 251.32 23.92 L 251.32 0.84 L 254.92 0.84 L 254.92 23.56 Q 254.92 24.856 255.244 25.749 A 3.189 3.189 0 0 0 255.82 26.76 Q 256.72 27.8 258.32 27.8 Q 259.08 27.8 259.82 27.62 A 8.877 8.877 0 0 0 260.405 27.457 Q 260.686 27.368 260.925 27.268 A 4.777 4.777 0 0 0 261.08 27.2 L 261.96 30.12 A 7.26 7.26 0 0 1 261.319 30.367 Q 261 30.473 260.635 30.569 A 13.992 13.992 0 0 1 260.18 30.68 A 9.527 9.527 0 0 1 258.918 30.874 A 12.205 12.205 0 0 1 257.84 30.92 A 8.345 8.345 0 0 1 255.884 30.699 A 7.018 7.018 0 0 1 254.52 30.22 A 5.073 5.073 0 0 1 252.39 28.314 A 6.342 6.342 0 0 1 252.18 27.96 Q 251.32 26.4 251.32 23.92 Z M 201.4 30.92 Q 198.44 30.92 196.08 29.54 Q 193.72 28.16 192.38 25.7 A 10.98 10.98 0 0 1 191.146 21.781 A 13.928 13.928 0 0 1 191.04 20.04 A 14.002 14.002 0 0 1 191.3 17.276 A 10.409 10.409 0 0 1 192.4 14.24 Q 193.76 11.8 196.12 10.48 A 10.468 10.468 0 0 1 200.768 9.176 A 12.53 12.53 0 0 1 201.4 9.16 Q 204.32 9.16 206.66 10.48 Q 209 11.8 210.38 14.22 A 10.318 10.318 0 0 1 211.566 17.597 A 13.817 13.817 0 0 1 211.76 19.96 A 13.674 13.674 0 0 1 211.461 22.884 A 10.502 10.502 0 0 1 210.4 25.74 Q 209.04 28.2 206.7 29.56 A 10.103 10.103 0 0 1 202.31 30.887 A 12.29 12.29 0 0 1 201.4 30.92 Z M 453.72 30.92 Q 450.76 30.92 448.4 29.54 Q 446.04 28.16 444.7 25.7 A 10.98 10.98 0 0 1 443.466 21.781 A 13.928 13.928 0 0 1 443.36 20.04 A 14.002 14.002 0 0 1 443.62 17.276 A 10.409 10.409 0 0 1 444.72 14.24 Q 446.08 11.8 448.44 10.48 A 10.468 10.468 0 0 1 453.088 9.176 A 12.53 12.53 0 0 1 453.72 9.16 Q 456.64 9.16 458.98 10.48 Q 461.32 11.8 462.7 14.22 A 10.318 10.318 0 0 1 463.886 17.597 A 13.817 13.817 0 0 1 464.08 19.96 A 13.674 13.674 0 0 1 463.781 22.884 A 10.502 10.502 0 0 1 462.72 25.74 Q 461.36 28.2 459.02 29.56 A 10.103 10.103 0 0 1 454.63 30.887 A 12.29 12.29 0 0 1 453.72 30.92 Z M 421.88 5.6 L 421.88 27.24 Q 422.72 27.36 423.64 27.4 Q 424.56 27.44 425.56 27.44 A 15.162 15.162 0 0 0 428.026 27.251 Q 429.997 26.926 431.44 26.04 Q 433.72 24.64 434.8 22.14 Q 435.88 19.64 435.88 16.4 Q 435.88 13.52 434.8 11 Q 433.72 8.48 431.48 6.94 A 8.358 8.358 0 0 0 428.659 5.716 Q 427.523 5.444 426.198 5.406 A 15.203 15.203 0 0 0 425.76 5.4 Q 424.6 5.4 423.64 5.46 Q 422.68 5.52 421.88 5.6 Z M 268.96 30.44 L 265.36 30.44 L 265.36 9.64 L 268.96 9.64 L 268.96 30.44 Z M 356.12 30.44 L 352.52 30.44 L 352.52 9.64 L 356.12 9.64 L 356.12 30.44 Z M 565.44 30.44 L 561.84 30.44 L 561.84 9.64 L 565.44 9.64 L 565.44 30.44 Z M 201.4 27.72 A 7.497 7.497 0 0 0 203.49 27.444 A 5.6 5.6 0 0 0 206.32 25.58 Q 208.08 23.44 208.08 20.04 A 8.55 8.55 0 0 0 207.59 17.126 A 8.006 8.006 0 0 0 207.2 16.22 A 7.679 7.679 0 0 0 205.531 13.993 A 7.268 7.268 0 0 0 204.82 13.42 Q 203.32 12.36 201.4 12.36 Q 198.24 12.36 196.48 14.44 Q 194.787 16.441 194.723 19.7 A 13.147 13.147 0 0 0 194.72 19.96 Q 194.72 22.04 195.6 23.82 A 7.775 7.775 0 0 0 197.012 25.836 A 7.051 7.051 0 0 0 197.98 26.66 Q 199.48 27.72 201.4 27.72 Z M 453.72 27.72 A 7.497 7.497 0 0 0 455.81 27.444 A 5.6 5.6 0 0 0 458.64 25.58 Q 460.4 23.44 460.4 20.04 A 8.55 8.55 0 0 0 459.91 17.126 A 8.006 8.006 0 0 0 459.52 16.22 A 7.679 7.679 0 0 0 457.851 13.993 A 7.268 7.268 0 0 0 457.14 13.42 Q 455.64 12.36 453.72 12.36 Q 450.56 12.36 448.8 14.44 Q 447.107 16.441 447.043 19.7 A 13.147 13.147 0 0 0 447.04 19.96 Q 447.04 22.04 447.92 23.82 A 7.775 7.775 0 0 0 449.332 25.836 A 7.051 7.051 0 0 0 450.3 26.66 Q 451.8 27.72 453.72 27.72 Z M 139.52 25.12 L 139.52 13.96 Q 138.44 13.2 137.14 12.74 Q 135.84 12.28 134.4 12.28 Q 132.48 12.28 131.02 13.26 A 6.52 6.52 0 0 0 129.012 15.43 A 7.985 7.985 0 0 0 128.72 15.98 Q 127.88 17.72 127.88 20.04 Q 127.88 22.28 128.72 24.02 A 7.041 7.041 0 0 0 129.962 25.838 A 6.279 6.279 0 0 0 131.04 26.74 Q 132.52 27.72 134.36 27.72 Q 135.88 27.72 137.24 26.98 A 7.78 7.78 0 0 0 139.128 25.559 A 7.228 7.228 0 0 0 139.52 25.12 Z M 182.28 25.12 L 182.28 13.96 Q 181.2 13.2 179.9 12.74 Q 178.6 12.28 177.16 12.28 Q 175.24 12.28 173.78 13.26 A 6.52 6.52 0 0 0 171.772 15.43 A 7.985 7.985 0 0 0 171.48 15.98 Q 170.64 17.72 170.64 20.04 Q 170.64 22.28 171.48 24.02 A 7.041 7.041 0 0 0 172.722 25.838 A 6.279 6.279 0 0 0 173.8 26.74 Q 175.28 27.72 177.12 27.72 Q 178.64 27.72 180 26.98 A 7.78 7.78 0 0 0 181.888 25.559 A 7.228 7.228 0 0 0 182.28 25.12 Z M 325.88 25.12 L 325.88 13.96 Q 324.8 13.2 323.5 12.74 Q 322.2 12.28 320.76 12.28 Q 318.84 12.28 317.38 13.26 A 6.52 6.52 0 0 0 315.372 15.43 A 7.985 7.985 0 0 0 315.08 15.98 Q 314.24 17.72 314.24 20.04 Q 314.24 22.28 315.08 24.02 A 7.041 7.041 0 0 0 316.322 25.838 A 6.279 6.279 0 0 0 317.4 26.74 Q 318.88 27.72 320.72 27.72 Q 322.24 27.72 323.6 26.98 A 7.78 7.78 0 0 0 325.488 25.559 A 7.228 7.228 0 0 0 325.88 25.12 Z M 394.92 25.12 L 394.92 13.96 Q 393.84 13.2 392.54 12.74 Q 391.24 12.28 389.8 12.28 Q 387.88 12.28 386.42 13.26 A 6.52 6.52 0 0 0 384.412 15.43 A 7.985 7.985 0 0 0 384.12 15.98 Q 383.28 17.72 383.28 20.04 Q 383.28 22.28 384.12 24.02 A 7.041 7.041 0 0 0 385.362 25.838 A 6.279 6.279 0 0 0 386.44 26.74 Q 387.92 27.72 389.76 27.72 Q 391.28 27.72 392.64 26.98 A 7.78 7.78 0 0 0 394.528 25.559 A 7.228 7.228 0 0 0 394.92 25.12 Z M 604.24 25.12 L 604.24 13.96 Q 603.16 13.2 601.86 12.74 Q 600.56 12.28 599.12 12.28 Q 597.2 12.28 595.74 13.26 A 6.52 6.52 0 0 0 593.732 15.43 A 7.985 7.985 0 0 0 593.44 15.98 Q 592.6 17.72 592.6 20.04 Q 592.6 22.28 593.44 24.02 A 7.041 7.041 0 0 0 594.682 25.838 A 6.279 6.279 0 0 0 595.76 26.74 Q 597.24 27.72 599.08 27.72 Q 600.6 27.72 601.96 26.98 A 7.78 7.78 0 0 0 603.848 25.559 A 7.228 7.228 0 0 0 604.24 25.12 Z M 153.12 39.4 L 154.08 36.88 Q 155.4 37.56 156.96 37.56 Q 157.792 37.56 158.393 37.33 A 2.595 2.595 0 0 0 158.68 37.2 A 1.375 1.375 0 0 0 159.074 36.897 Q 159.323 36.615 159.355 36.204 A 1.593 1.593 0 0 0 159.36 36.08 A 1.137 1.137 0 0 0 159.11 35.38 Q 158.974 35.202 158.765 35.036 A 3.154 3.154 0 0 0 158.42 34.8 A 2.721 2.721 0 0 0 157.801 34.542 Q 156.781 34.241 154.85 34.24 A 17.721 17.721 0 0 0 154.84 34.24 L 156.24 30.44 L 158.96 30.44 L 158.12 32.8 A 7.279 7.279 0 0 1 159.459 32.916 Q 160.566 33.123 161.36 33.7 A 2.923 2.923 0 0 1 162.56 35.755 A 4.399 4.399 0 0 1 162.6 36.36 Q 162.6 37.84 161.24 39.02 A 4.24 4.24 0 0 1 159.843 39.806 Q 159.21 40.027 158.429 40.124 A 10.63 10.63 0 0 1 157.12 40.2 A 10.639 10.639 0 0 1 155.165 40.024 A 9.857 9.857 0 0 1 155.04 40 Q 154.04 39.8 153.12 39.4 Z Z M 172.44 6.12 L 171.04 3.64 A 6.535 6.535 0 0 1 171.977 2.791 A 8.631 8.631 0 0 1 172.88 2.2 Q 174 1.56 175.2 1.56 A 4.932 4.932 0 0 1 176.008 1.623 Q 176.462 1.698 176.842 1.865 A 3.003 3.003 0 0 1 176.92 1.9 Q 177.64 2.24 178.3 2.58 A 3.066 3.066 0 0 0 179.366 2.896 A 3.826 3.826 0 0 0 179.8 2.92 A 3.469 3.469 0 0 0 180.679 2.813 A 2.882 2.882 0 0 0 181.36 2.54 Q 182.04 2.16 182.56 1.68 L 183.96 4.2 A 9.718 9.718 0 0 1 182.866 5.088 A 11.496 11.496 0 0 1 182.3 5.46 A 3.899 3.899 0 0 1 180.653 6.012 A 4.912 4.912 0 0 1 180.12 6.04 Q 179.221 6.04 178.561 5.786 A 2.969 2.969 0 0 1 178.36 5.7 Q 177.64 5.36 176.96 5.02 A 3.147 3.147 0 0 0 176.071 4.737 A 4.27 4.27 0 0 0 175.36 4.68 Q 174.48 4.68 173.76 5.12 Q 173.04 5.56 172.44 6.12 Z M 507.72 18.6 L 519.12 18.6 A 9.742 9.742 0 0 0 518.958 16.766 Q 518.76 15.732 518.318 14.923 A 4.969 4.969 0 0 0 517.6 13.92 A 4.995 4.995 0 0 0 514.816 12.41 A 7.358 7.358 0 0 0 513.4 12.28 A 5.432 5.432 0 0 0 511.355 12.654 A 5.01 5.01 0 0 0 509.56 13.9 Q 508.04 15.52 507.72 18.6 Z M 325.72 3.36 L 317.72 7.44 L 316.48 5 L 324.04 0 L 325.72 3.36 Z M 518.16 3.36 L 510.16 7.44 L 508.92 5 L 516.48 0 L 518.16 3.36 Z M 265.415 5.355 A 2.389 2.389 0 0 0 267.16 6.08 A 3.27 3.27 0 0 0 267.758 6.028 A 2.259 2.259 0 0 0 269 5.38 A 2.311 2.311 0 0 0 269.57 4.393 A 3.004 3.004 0 0 0 269.68 3.56 A 2.908 2.908 0 0 0 269.68 3.528 A 2.424 2.424 0 0 0 268.94 1.78 A 2.957 2.957 0 0 0 268.917 1.757 A 2.423 2.423 0 0 0 267.16 1.04 A 3.305 3.305 0 0 0 266.498 1.103 A 2.264 2.264 0 0 0 265.32 1.72 A 2.235 2.235 0 0 0 264.732 2.773 A 3.195 3.195 0 0 0 264.64 3.56 A 2.397 2.397 0 0 0 264.837 4.527 A 2.657 2.657 0 0 0 265.38 5.32 A 2.986 2.986 0 0 0 265.415 5.355 Z M 352.575 5.355 A 2.389 2.389 0 0 0 354.32 6.08 A 3.27 3.27 0 0 0 354.918 6.028 A 2.259 2.259 0 0 0 356.16 5.38 A 2.311 2.311 0 0 0 356.73 4.393 A 3.004 3.004 0 0 0 356.84 3.56 A 2.908 2.908 0 0 0 356.84 3.528 A 2.424 2.424 0 0 0 356.1 1.78 A 2.957 2.957 0 0 0 356.077 1.757 A 2.423 2.423 0 0 0 354.32 1.04 A 3.305 3.305 0 0 0 353.658 1.103 A 2.264 2.264 0 0 0 352.48 1.72 A 2.235 2.235 0 0 0 351.892 2.773 A 3.195 3.195 0 0 0 351.8 3.56 A 2.397 2.397 0 0 0 351.997 4.527 A 2.657 2.657 0 0 0 352.54 5.32 A 2.986 2.986 0 0 0 352.575 5.355 Z M 561.895 5.355 A 2.389 2.389 0 0 0 563.64 6.08 A 3.27 3.27 0 0 0 564.238 6.028 A 2.259 2.259 0 0 0 565.48 5.38 A 2.311 2.311 0 0 0 566.05 4.393 A 3.004 3.004 0 0 0 566.16 3.56 A 2.908 2.908 0 0 0 566.16 3.528 A 2.424 2.424 0 0 0 565.42 1.78 A 2.957 2.957 0 0 0 565.397 1.757 A 2.423 2.423 0 0 0 563.64 1.04 A 3.305 3.305 0 0 0 562.978 1.103 A 2.264 2.264 0 0 0 561.8 1.72 A 2.235 2.235 0 0 0 561.212 2.773 A 3.195 3.195 0 0 0 561.12 3.56 A 2.397 2.397 0 0 0 561.317 4.527 A 2.657 2.657 0 0 0 561.86 5.32 A 2.986 2.986 0 0 0 561.895 5.355 Z"
         transform="translate(15, 15)"
         id="text979"
         aria-label="estacao" />
    </g>
  </g>
</svg>
